%TF.GenerationSoftware,KiCad,Pcbnew,9.0.6-1.fc42*%
%TF.CreationDate,2025-12-19T16:16:41-05:00*%
%TF.ProjectId,HALOW-USB,48414c4f-572d-4555-9342-2e6b69636164,rev?*%
%TF.SameCoordinates,Original*%
%TF.FileFunction,Legend,Top*%
%TF.FilePolarity,Positive*%
%FSLAX46Y46*%
G04 Gerber Fmt 4.6, Leading zero omitted, Abs format (unit mm)*
G04 Created by KiCad (PCBNEW 9.0.6-1.fc42) date 2025-12-19 16:16:41*
%MOMM*%
%LPD*%
G01*
G04 APERTURE LIST*
%ADD10C,0.150000*%
%ADD11C,0.100000*%
%ADD12C,0.250000*%
%ADD13C,0.120000*%
G04 APERTURE END LIST*
D10*
X125063220Y-88359875D02*
X125063220Y-87359875D01*
X125063220Y-87359875D02*
X124729887Y-88074160D01*
X124729887Y-88074160D02*
X124396554Y-87359875D01*
X124396554Y-87359875D02*
X124396554Y-88359875D01*
X123967982Y-88074160D02*
X123491792Y-88074160D01*
X124063220Y-88359875D02*
X123729887Y-87359875D01*
X123729887Y-87359875D02*
X123396554Y-88359875D01*
X123158458Y-87359875D02*
X122491792Y-88359875D01*
X122491792Y-87359875D02*
X123158458Y-88359875D01*
X121444172Y-87359875D02*
X121206077Y-88359875D01*
X121206077Y-88359875D02*
X121015601Y-87645589D01*
X121015601Y-87645589D02*
X120825125Y-88359875D01*
X120825125Y-88359875D02*
X120587030Y-87359875D01*
X120253696Y-88074160D02*
X119777506Y-88074160D01*
X120348934Y-88359875D02*
X120015601Y-87359875D01*
X120015601Y-87359875D02*
X119682268Y-88359875D01*
X119396553Y-88312256D02*
X119253696Y-88359875D01*
X119253696Y-88359875D02*
X119015601Y-88359875D01*
X119015601Y-88359875D02*
X118920363Y-88312256D01*
X118920363Y-88312256D02*
X118872744Y-88264636D01*
X118872744Y-88264636D02*
X118825125Y-88169398D01*
X118825125Y-88169398D02*
X118825125Y-88074160D01*
X118825125Y-88074160D02*
X118872744Y-87978922D01*
X118872744Y-87978922D02*
X118920363Y-87931303D01*
X118920363Y-87931303D02*
X119015601Y-87883684D01*
X119015601Y-87883684D02*
X119206077Y-87836065D01*
X119206077Y-87836065D02*
X119301315Y-87788446D01*
X119301315Y-87788446D02*
X119348934Y-87740827D01*
X119348934Y-87740827D02*
X119396553Y-87645589D01*
X119396553Y-87645589D02*
X119396553Y-87550351D01*
X119396553Y-87550351D02*
X119348934Y-87455113D01*
X119348934Y-87455113D02*
X119301315Y-87407494D01*
X119301315Y-87407494D02*
X119206077Y-87359875D01*
X119206077Y-87359875D02*
X118967982Y-87359875D01*
X118967982Y-87359875D02*
X118825125Y-87407494D01*
X125063220Y-89969819D02*
X125063220Y-88969819D01*
X124634649Y-89969819D02*
X124634649Y-89446009D01*
X124634649Y-89446009D02*
X124682268Y-89350771D01*
X124682268Y-89350771D02*
X124777506Y-89303152D01*
X124777506Y-89303152D02*
X124920363Y-89303152D01*
X124920363Y-89303152D02*
X125015601Y-89350771D01*
X125015601Y-89350771D02*
X125063220Y-89398390D01*
X124158458Y-89446009D02*
X123825125Y-89446009D01*
X123682268Y-89969819D02*
X124158458Y-89969819D01*
X124158458Y-89969819D02*
X124158458Y-88969819D01*
X124158458Y-88969819D02*
X123682268Y-88969819D01*
X123253696Y-89969819D02*
X123253696Y-89303152D01*
X123253696Y-89493628D02*
X123206077Y-89398390D01*
X123206077Y-89398390D02*
X123158458Y-89350771D01*
X123158458Y-89350771D02*
X123063220Y-89303152D01*
X123063220Y-89303152D02*
X122967982Y-89303152D01*
X122634648Y-89446009D02*
X122301315Y-89446009D01*
X122158458Y-89969819D02*
X122634648Y-89969819D01*
X122634648Y-89969819D02*
X122634648Y-88969819D01*
X122634648Y-88969819D02*
X122158458Y-88969819D01*
X115454819Y-99261904D02*
X116264342Y-99261904D01*
X116264342Y-99261904D02*
X116359580Y-99214285D01*
X116359580Y-99214285D02*
X116407200Y-99166666D01*
X116407200Y-99166666D02*
X116454819Y-99071428D01*
X116454819Y-99071428D02*
X116454819Y-98880952D01*
X116454819Y-98880952D02*
X116407200Y-98785714D01*
X116407200Y-98785714D02*
X116359580Y-98738095D01*
X116359580Y-98738095D02*
X116264342Y-98690476D01*
X116264342Y-98690476D02*
X115454819Y-98690476D01*
X116454819Y-97690476D02*
X116454819Y-98261904D01*
X116454819Y-97976190D02*
X115454819Y-97976190D01*
X115454819Y-97976190D02*
X115597676Y-98071428D01*
X115597676Y-98071428D02*
X115692914Y-98166666D01*
X115692914Y-98166666D02*
X115740533Y-98261904D01*
X126859580Y-98666666D02*
X126907200Y-98714285D01*
X126907200Y-98714285D02*
X126954819Y-98857142D01*
X126954819Y-98857142D02*
X126954819Y-98952380D01*
X126954819Y-98952380D02*
X126907200Y-99095237D01*
X126907200Y-99095237D02*
X126811961Y-99190475D01*
X126811961Y-99190475D02*
X126716723Y-99238094D01*
X126716723Y-99238094D02*
X126526247Y-99285713D01*
X126526247Y-99285713D02*
X126383390Y-99285713D01*
X126383390Y-99285713D02*
X126192914Y-99238094D01*
X126192914Y-99238094D02*
X126097676Y-99190475D01*
X126097676Y-99190475D02*
X126002438Y-99095237D01*
X126002438Y-99095237D02*
X125954819Y-98952380D01*
X125954819Y-98952380D02*
X125954819Y-98857142D01*
X125954819Y-98857142D02*
X126002438Y-98714285D01*
X126002438Y-98714285D02*
X126050057Y-98666666D01*
X126050057Y-98285713D02*
X126002438Y-98238094D01*
X126002438Y-98238094D02*
X125954819Y-98142856D01*
X125954819Y-98142856D02*
X125954819Y-97904761D01*
X125954819Y-97904761D02*
X126002438Y-97809523D01*
X126002438Y-97809523D02*
X126050057Y-97761904D01*
X126050057Y-97761904D02*
X126145295Y-97714285D01*
X126145295Y-97714285D02*
X126240533Y-97714285D01*
X126240533Y-97714285D02*
X126383390Y-97761904D01*
X126383390Y-97761904D02*
X126954819Y-98333332D01*
X126954819Y-98333332D02*
X126954819Y-97714285D01*
X120554819Y-102024404D02*
X121364342Y-102024404D01*
X121364342Y-102024404D02*
X121459580Y-101976785D01*
X121459580Y-101976785D02*
X121507200Y-101929166D01*
X121507200Y-101929166D02*
X121554819Y-101833928D01*
X121554819Y-101833928D02*
X121554819Y-101643452D01*
X121554819Y-101643452D02*
X121507200Y-101548214D01*
X121507200Y-101548214D02*
X121459580Y-101500595D01*
X121459580Y-101500595D02*
X121364342Y-101452976D01*
X121364342Y-101452976D02*
X120554819Y-101452976D01*
X120554819Y-101072023D02*
X120554819Y-100452976D01*
X120554819Y-100452976D02*
X120935771Y-100786309D01*
X120935771Y-100786309D02*
X120935771Y-100643452D01*
X120935771Y-100643452D02*
X120983390Y-100548214D01*
X120983390Y-100548214D02*
X121031009Y-100500595D01*
X121031009Y-100500595D02*
X121126247Y-100452976D01*
X121126247Y-100452976D02*
X121364342Y-100452976D01*
X121364342Y-100452976D02*
X121459580Y-100500595D01*
X121459580Y-100500595D02*
X121507200Y-100548214D01*
X121507200Y-100548214D02*
X121554819Y-100643452D01*
X121554819Y-100643452D02*
X121554819Y-100929166D01*
X121554819Y-100929166D02*
X121507200Y-101024404D01*
X121507200Y-101024404D02*
X121459580Y-101072023D01*
X117333333Y-105454819D02*
X117000000Y-104978628D01*
X116761905Y-105454819D02*
X116761905Y-104454819D01*
X116761905Y-104454819D02*
X117142857Y-104454819D01*
X117142857Y-104454819D02*
X117238095Y-104502438D01*
X117238095Y-104502438D02*
X117285714Y-104550057D01*
X117285714Y-104550057D02*
X117333333Y-104645295D01*
X117333333Y-104645295D02*
X117333333Y-104788152D01*
X117333333Y-104788152D02*
X117285714Y-104883390D01*
X117285714Y-104883390D02*
X117238095Y-104931009D01*
X117238095Y-104931009D02*
X117142857Y-104978628D01*
X117142857Y-104978628D02*
X116761905Y-104978628D01*
X117714286Y-104550057D02*
X117761905Y-104502438D01*
X117761905Y-104502438D02*
X117857143Y-104454819D01*
X117857143Y-104454819D02*
X118095238Y-104454819D01*
X118095238Y-104454819D02*
X118190476Y-104502438D01*
X118190476Y-104502438D02*
X118238095Y-104550057D01*
X118238095Y-104550057D02*
X118285714Y-104645295D01*
X118285714Y-104645295D02*
X118285714Y-104740533D01*
X118285714Y-104740533D02*
X118238095Y-104883390D01*
X118238095Y-104883390D02*
X117666667Y-105454819D01*
X117666667Y-105454819D02*
X118285714Y-105454819D01*
X128333333Y-102524819D02*
X128000000Y-102048628D01*
X127761905Y-102524819D02*
X127761905Y-101524819D01*
X127761905Y-101524819D02*
X128142857Y-101524819D01*
X128142857Y-101524819D02*
X128238095Y-101572438D01*
X128238095Y-101572438D02*
X128285714Y-101620057D01*
X128285714Y-101620057D02*
X128333333Y-101715295D01*
X128333333Y-101715295D02*
X128333333Y-101858152D01*
X128333333Y-101858152D02*
X128285714Y-101953390D01*
X128285714Y-101953390D02*
X128238095Y-102001009D01*
X128238095Y-102001009D02*
X128142857Y-102048628D01*
X128142857Y-102048628D02*
X127761905Y-102048628D01*
X128666667Y-101524819D02*
X129285714Y-101524819D01*
X129285714Y-101524819D02*
X128952381Y-101905771D01*
X128952381Y-101905771D02*
X129095238Y-101905771D01*
X129095238Y-101905771D02*
X129190476Y-101953390D01*
X129190476Y-101953390D02*
X129238095Y-102001009D01*
X129238095Y-102001009D02*
X129285714Y-102096247D01*
X129285714Y-102096247D02*
X129285714Y-102334342D01*
X129285714Y-102334342D02*
X129238095Y-102429580D01*
X129238095Y-102429580D02*
X129190476Y-102477200D01*
X129190476Y-102477200D02*
X129095238Y-102524819D01*
X129095238Y-102524819D02*
X128809524Y-102524819D01*
X128809524Y-102524819D02*
X128714286Y-102477200D01*
X128714286Y-102477200D02*
X128666667Y-102429580D01*
X128859580Y-98666666D02*
X128907200Y-98714285D01*
X128907200Y-98714285D02*
X128954819Y-98857142D01*
X128954819Y-98857142D02*
X128954819Y-98952380D01*
X128954819Y-98952380D02*
X128907200Y-99095237D01*
X128907200Y-99095237D02*
X128811961Y-99190475D01*
X128811961Y-99190475D02*
X128716723Y-99238094D01*
X128716723Y-99238094D02*
X128526247Y-99285713D01*
X128526247Y-99285713D02*
X128383390Y-99285713D01*
X128383390Y-99285713D02*
X128192914Y-99238094D01*
X128192914Y-99238094D02*
X128097676Y-99190475D01*
X128097676Y-99190475D02*
X128002438Y-99095237D01*
X128002438Y-99095237D02*
X127954819Y-98952380D01*
X127954819Y-98952380D02*
X127954819Y-98857142D01*
X127954819Y-98857142D02*
X128002438Y-98714285D01*
X128002438Y-98714285D02*
X128050057Y-98666666D01*
X127954819Y-98333332D02*
X127954819Y-97714285D01*
X127954819Y-97714285D02*
X128335771Y-98047618D01*
X128335771Y-98047618D02*
X128335771Y-97904761D01*
X128335771Y-97904761D02*
X128383390Y-97809523D01*
X128383390Y-97809523D02*
X128431009Y-97761904D01*
X128431009Y-97761904D02*
X128526247Y-97714285D01*
X128526247Y-97714285D02*
X128764342Y-97714285D01*
X128764342Y-97714285D02*
X128859580Y-97761904D01*
X128859580Y-97761904D02*
X128907200Y-97809523D01*
X128907200Y-97809523D02*
X128954819Y-97904761D01*
X128954819Y-97904761D02*
X128954819Y-98190475D01*
X128954819Y-98190475D02*
X128907200Y-98285713D01*
X128907200Y-98285713D02*
X128859580Y-98333332D01*
X126833333Y-79159580D02*
X126785714Y-79207200D01*
X126785714Y-79207200D02*
X126642857Y-79254819D01*
X126642857Y-79254819D02*
X126547619Y-79254819D01*
X126547619Y-79254819D02*
X126404762Y-79207200D01*
X126404762Y-79207200D02*
X126309524Y-79111961D01*
X126309524Y-79111961D02*
X126261905Y-79016723D01*
X126261905Y-79016723D02*
X126214286Y-78826247D01*
X126214286Y-78826247D02*
X126214286Y-78683390D01*
X126214286Y-78683390D02*
X126261905Y-78492914D01*
X126261905Y-78492914D02*
X126309524Y-78397676D01*
X126309524Y-78397676D02*
X126404762Y-78302438D01*
X126404762Y-78302438D02*
X126547619Y-78254819D01*
X126547619Y-78254819D02*
X126642857Y-78254819D01*
X126642857Y-78254819D02*
X126785714Y-78302438D01*
X126785714Y-78302438D02*
X126833333Y-78350057D01*
X127785714Y-79254819D02*
X127214286Y-79254819D01*
X127500000Y-79254819D02*
X127500000Y-78254819D01*
X127500000Y-78254819D02*
X127404762Y-78397676D01*
X127404762Y-78397676D02*
X127309524Y-78492914D01*
X127309524Y-78492914D02*
X127214286Y-78540533D01*
X124133333Y-79129580D02*
X124085714Y-79177200D01*
X124085714Y-79177200D02*
X123942857Y-79224819D01*
X123942857Y-79224819D02*
X123847619Y-79224819D01*
X123847619Y-79224819D02*
X123704762Y-79177200D01*
X123704762Y-79177200D02*
X123609524Y-79081961D01*
X123609524Y-79081961D02*
X123561905Y-78986723D01*
X123561905Y-78986723D02*
X123514286Y-78796247D01*
X123514286Y-78796247D02*
X123514286Y-78653390D01*
X123514286Y-78653390D02*
X123561905Y-78462914D01*
X123561905Y-78462914D02*
X123609524Y-78367676D01*
X123609524Y-78367676D02*
X123704762Y-78272438D01*
X123704762Y-78272438D02*
X123847619Y-78224819D01*
X123847619Y-78224819D02*
X123942857Y-78224819D01*
X123942857Y-78224819D02*
X124085714Y-78272438D01*
X124085714Y-78272438D02*
X124133333Y-78320057D01*
X124466667Y-78224819D02*
X125133333Y-78224819D01*
X125133333Y-78224819D02*
X124704762Y-79224819D01*
X116359580Y-95666666D02*
X116407200Y-95714285D01*
X116407200Y-95714285D02*
X116454819Y-95857142D01*
X116454819Y-95857142D02*
X116454819Y-95952380D01*
X116454819Y-95952380D02*
X116407200Y-96095237D01*
X116407200Y-96095237D02*
X116311961Y-96190475D01*
X116311961Y-96190475D02*
X116216723Y-96238094D01*
X116216723Y-96238094D02*
X116026247Y-96285713D01*
X116026247Y-96285713D02*
X115883390Y-96285713D01*
X115883390Y-96285713D02*
X115692914Y-96238094D01*
X115692914Y-96238094D02*
X115597676Y-96190475D01*
X115597676Y-96190475D02*
X115502438Y-96095237D01*
X115502438Y-96095237D02*
X115454819Y-95952380D01*
X115454819Y-95952380D02*
X115454819Y-95857142D01*
X115454819Y-95857142D02*
X115502438Y-95714285D01*
X115502438Y-95714285D02*
X115550057Y-95666666D01*
X115454819Y-94809523D02*
X115454819Y-94999999D01*
X115454819Y-94999999D02*
X115502438Y-95095237D01*
X115502438Y-95095237D02*
X115550057Y-95142856D01*
X115550057Y-95142856D02*
X115692914Y-95238094D01*
X115692914Y-95238094D02*
X115883390Y-95285713D01*
X115883390Y-95285713D02*
X116264342Y-95285713D01*
X116264342Y-95285713D02*
X116359580Y-95238094D01*
X116359580Y-95238094D02*
X116407200Y-95190475D01*
X116407200Y-95190475D02*
X116454819Y-95095237D01*
X116454819Y-95095237D02*
X116454819Y-94904761D01*
X116454819Y-94904761D02*
X116407200Y-94809523D01*
X116407200Y-94809523D02*
X116359580Y-94761904D01*
X116359580Y-94761904D02*
X116264342Y-94714285D01*
X116264342Y-94714285D02*
X116026247Y-94714285D01*
X116026247Y-94714285D02*
X115931009Y-94761904D01*
X115931009Y-94761904D02*
X115883390Y-94809523D01*
X115883390Y-94809523D02*
X115835771Y-94904761D01*
X115835771Y-94904761D02*
X115835771Y-95095237D01*
X115835771Y-95095237D02*
X115883390Y-95190475D01*
X115883390Y-95190475D02*
X115931009Y-95238094D01*
X115931009Y-95238094D02*
X116026247Y-95285713D01*
X124859580Y-98666666D02*
X124907200Y-98714285D01*
X124907200Y-98714285D02*
X124954819Y-98857142D01*
X124954819Y-98857142D02*
X124954819Y-98952380D01*
X124954819Y-98952380D02*
X124907200Y-99095237D01*
X124907200Y-99095237D02*
X124811961Y-99190475D01*
X124811961Y-99190475D02*
X124716723Y-99238094D01*
X124716723Y-99238094D02*
X124526247Y-99285713D01*
X124526247Y-99285713D02*
X124383390Y-99285713D01*
X124383390Y-99285713D02*
X124192914Y-99238094D01*
X124192914Y-99238094D02*
X124097676Y-99190475D01*
X124097676Y-99190475D02*
X124002438Y-99095237D01*
X124002438Y-99095237D02*
X123954819Y-98952380D01*
X123954819Y-98952380D02*
X123954819Y-98857142D01*
X123954819Y-98857142D02*
X124002438Y-98714285D01*
X124002438Y-98714285D02*
X124050057Y-98666666D01*
X124288152Y-97809523D02*
X124954819Y-97809523D01*
X123907200Y-98047618D02*
X124621485Y-98285713D01*
X124621485Y-98285713D02*
X124621485Y-97666666D01*
X121333333Y-82454819D02*
X121000000Y-81978628D01*
X120761905Y-82454819D02*
X120761905Y-81454819D01*
X120761905Y-81454819D02*
X121142857Y-81454819D01*
X121142857Y-81454819D02*
X121238095Y-81502438D01*
X121238095Y-81502438D02*
X121285714Y-81550057D01*
X121285714Y-81550057D02*
X121333333Y-81645295D01*
X121333333Y-81645295D02*
X121333333Y-81788152D01*
X121333333Y-81788152D02*
X121285714Y-81883390D01*
X121285714Y-81883390D02*
X121238095Y-81931009D01*
X121238095Y-81931009D02*
X121142857Y-81978628D01*
X121142857Y-81978628D02*
X120761905Y-81978628D01*
X122285714Y-82454819D02*
X121714286Y-82454819D01*
X122000000Y-82454819D02*
X122000000Y-81454819D01*
X122000000Y-81454819D02*
X121904762Y-81597676D01*
X121904762Y-81597676D02*
X121809524Y-81692914D01*
X121809524Y-81692914D02*
X121714286Y-81740533D01*
X116359580Y-101666666D02*
X116407200Y-101714285D01*
X116407200Y-101714285D02*
X116454819Y-101857142D01*
X116454819Y-101857142D02*
X116454819Y-101952380D01*
X116454819Y-101952380D02*
X116407200Y-102095237D01*
X116407200Y-102095237D02*
X116311961Y-102190475D01*
X116311961Y-102190475D02*
X116216723Y-102238094D01*
X116216723Y-102238094D02*
X116026247Y-102285713D01*
X116026247Y-102285713D02*
X115883390Y-102285713D01*
X115883390Y-102285713D02*
X115692914Y-102238094D01*
X115692914Y-102238094D02*
X115597676Y-102190475D01*
X115597676Y-102190475D02*
X115502438Y-102095237D01*
X115502438Y-102095237D02*
X115454819Y-101952380D01*
X115454819Y-101952380D02*
X115454819Y-101857142D01*
X115454819Y-101857142D02*
X115502438Y-101714285D01*
X115502438Y-101714285D02*
X115550057Y-101666666D01*
X115454819Y-100761904D02*
X115454819Y-101238094D01*
X115454819Y-101238094D02*
X115931009Y-101285713D01*
X115931009Y-101285713D02*
X115883390Y-101238094D01*
X115883390Y-101238094D02*
X115835771Y-101142856D01*
X115835771Y-101142856D02*
X115835771Y-100904761D01*
X115835771Y-100904761D02*
X115883390Y-100809523D01*
X115883390Y-100809523D02*
X115931009Y-100761904D01*
X115931009Y-100761904D02*
X116026247Y-100714285D01*
X116026247Y-100714285D02*
X116264342Y-100714285D01*
X116264342Y-100714285D02*
X116359580Y-100761904D01*
X116359580Y-100761904D02*
X116407200Y-100809523D01*
X116407200Y-100809523D02*
X116454819Y-100904761D01*
X116454819Y-100904761D02*
X116454819Y-101142856D01*
X116454819Y-101142856D02*
X116407200Y-101238094D01*
X116407200Y-101238094D02*
X116359580Y-101285713D01*
D11*
%TO.C,U1*%
X120050000Y-99400000D02*
X119900000Y-99400000D01*
X120050000Y-97600000D02*
X120050000Y-99400000D01*
X120050000Y-97600000D02*
X119900000Y-97600000D01*
X118990000Y-99400000D02*
X118950000Y-99400000D01*
X118990000Y-97600000D02*
X118000000Y-97600000D01*
X118040000Y-99400000D02*
X118000000Y-99400000D01*
X117090000Y-99400000D02*
X116950000Y-99400000D01*
X117090000Y-97600000D02*
X116950000Y-97600000D01*
X116950000Y-97600000D02*
X116950000Y-99400000D01*
D12*
%TO.C,U2*%
X119000000Y-109722500D02*
X119000000Y-107912500D01*
X119000000Y-113462500D02*
X119000000Y-111942500D01*
X128000000Y-109722500D02*
X128000000Y-107912500D01*
X128000000Y-113462500D02*
X119000000Y-113462500D01*
X128000000Y-113462500D02*
X128000000Y-111942500D01*
D13*
%TO.C,C2*%
X126190000Y-95916233D02*
X126190000Y-96208767D01*
X127210000Y-95916233D02*
X127210000Y-96208767D01*
%TO.C,U3*%
X121940000Y-100352500D02*
X121990000Y-100352500D01*
X121940000Y-102172500D02*
X121940000Y-100352500D01*
X121990000Y-102172500D02*
X121940000Y-102172500D01*
X125010000Y-100352500D02*
X125060000Y-100352500D01*
X125060000Y-100352500D02*
X125060000Y-102172500D01*
X125060000Y-102172500D02*
X125010000Y-102172500D01*
X121990000Y-102712500D02*
X121660000Y-102952500D01*
X121660000Y-102472500D01*
X121990000Y-102712500D01*
G36*
X121990000Y-102712500D02*
G01*
X121660000Y-102952500D01*
X121660000Y-102472500D01*
X121990000Y-102712500D01*
G37*
%TO.C,R2*%
X118754724Y-102977500D02*
X118245276Y-102977500D01*
X118754724Y-104022500D02*
X118245276Y-104022500D01*
%TO.C,R3*%
X128245276Y-102977500D02*
X128754724Y-102977500D01*
X128245276Y-104022500D02*
X128754724Y-104022500D01*
%TO.C,C3*%
X128090000Y-95916233D02*
X128090000Y-96208767D01*
X129110000Y-95916233D02*
X129110000Y-96208767D01*
D12*
%TO.C,JP1*%
X117700000Y-77900000D02*
X118650000Y-77900000D01*
X117700000Y-77910000D02*
X117700000Y-77900000D01*
X117730000Y-80570000D02*
X117730000Y-80640000D01*
X117730000Y-80640000D02*
X118270000Y-80640000D01*
X118650000Y-77650000D02*
X119300000Y-77650000D01*
X118650000Y-77900000D02*
X118650000Y-77650000D01*
X119300000Y-77650000D02*
X119300000Y-77900000D01*
X119300000Y-77900000D02*
X120300000Y-77900000D01*
X119730000Y-80640000D02*
X120270000Y-80640000D01*
X120270000Y-80640000D02*
X120270000Y-80570000D01*
X120300000Y-77900000D02*
X120300000Y-77910000D01*
D13*
%TO.C,C1*%
X126490000Y-81346267D02*
X126490000Y-81053733D01*
X127510000Y-81346267D02*
X127510000Y-81053733D01*
%TO.C,C7*%
X124153733Y-79690000D02*
X124446267Y-79690000D01*
X124153733Y-80710000D02*
X124446267Y-80710000D01*
%TO.C,C6*%
X118353733Y-94990000D02*
X118646267Y-94990000D01*
X118353733Y-96010000D02*
X118646267Y-96010000D01*
%TO.C,C4*%
X124090000Y-96208767D02*
X124090000Y-95916233D01*
X125110000Y-96208767D02*
X125110000Y-95916233D01*
%TO.C,MM8108-MF1*%
D11*
X117500000Y-83700000D02*
X128500000Y-83700000D01*
X128500000Y-93700000D01*
X117500000Y-93700000D01*
X117500000Y-83700000D01*
D13*
%TO.C,R1*%
X124554724Y-81677500D02*
X124045276Y-81677500D01*
X124554724Y-82722500D02*
X124045276Y-82722500D01*
%TO.C,C5*%
X118353733Y-100990000D02*
X118646267Y-100990000D01*
X118353733Y-102010000D02*
X118646267Y-102010000D01*
%TD*%
M02*
