M48
; DRILL file {KiCad 9.0.6-1.fc42} date 2025-12-19T16:16:36-0500
; FORMAT={-:-/ absolute / metric / decimal}
; #@! TF.CreationDate,2025-12-19T16:16:36-05:00
; #@! TF.GenerationSoftware,Kicad,Pcbnew,9.0.6-1.fc42
; #@! TF.FileFunction,Plated,1,2,PTH
FMAT,2
METRIC
; #@! TA.AperFunction,Plated,PTH,ViaDrill
T1C0.300
; #@! TA.AperFunction,Plated,PTH,ComponentDrill
T2C0.600
; #@! TA.AperFunction,Plated,PTH,ComponentDrill
T3C0.650
%
G90
G05
T1
X116.0Y-77.0
X116.0Y-79.0
X116.0Y-81.0
X116.0Y-83.0
X116.0Y-85.0
X116.0Y-87.0
X116.0Y-89.0
X116.0Y-91.0
X116.0Y-93.0
X116.0Y-95.0
X116.0Y-97.0
X116.0Y-98.5
X116.0Y-99.0
X116.0Y-101.0
X116.0Y-103.0
X116.0Y-105.0
X116.0Y-107.0
X116.0Y-109.0
X116.0Y-111.0
X116.0Y-112.0
X117.0Y-77.0
X117.0Y-81.0
X117.0Y-83.0
X117.0Y-85.0
X117.0Y-87.0
X117.0Y-89.0
X117.0Y-91.0
X117.0Y-93.0
X117.0Y-98.5
X117.6Y-82.4
X117.6Y-102.525
X117.6Y-105.0
X117.637Y-96.4
X117.65Y-81.8
X117.9Y-83.1
X118.0Y-77.0
X118.0Y-81.25
X118.0Y-98.5
X118.0Y-112.0
X118.5Y-99.8
X119.0Y-85.0
X119.0Y-87.0
X119.0Y-89.0
X119.0Y-91.0
X119.0Y-92.0
X119.0Y-98.5
X119.362Y-95.5
X119.362Y-101.5
X119.725Y-82.625
X119.75Y-83.125
X120.0Y-77.0
X120.0Y-98.5
X120.0Y-112.0
X120.075Y-94.309
X120.225Y-82.275
X120.4Y-81.1
X120.425Y-81.675
X120.917Y-96.483
X120.925Y-94.309
X121.0Y-85.0
X121.0Y-87.0
X121.0Y-89.0
X121.0Y-91.0
X121.0Y-92.0
X121.0Y-98.5
X121.0Y-100.0
X121.0Y-101.0
X121.5Y-103.5
X122.0Y-77.0
X122.0Y-79.0
X122.0Y-81.0
X122.0Y-98.5
X122.0Y-112.0
X122.299Y-97.301
X122.4Y-104.4
X122.901Y-96.699
X123.0Y-85.0
X123.0Y-87.0
X123.0Y-89.0
X123.0Y-91.0
X123.0Y-92.0
X123.078Y-103.922
X123.4Y-101.2
X123.5Y-102.4
X123.75Y-104.4
X124.0Y-77.0
X124.0Y-79.0
X124.0Y-112.0
X124.6Y-96.925
X124.846Y-103.846
X125.0Y-85.0
X125.0Y-87.0
X125.0Y-89.0
X125.0Y-91.0
X125.0Y-92.0
X125.5Y-99.0
X125.5Y-101.0
X125.5Y-103.0
X126.0Y-77.0
X126.0Y-79.0
X126.0Y-112.0
X126.7Y-96.925
X127.0Y-85.0
X127.0Y-87.0
X127.0Y-89.0
X127.0Y-91.0
X127.0Y-92.0
X127.5Y-99.0
X127.5Y-101.0
X128.0Y-77.0
X128.0Y-79.0
X128.0Y-112.0
X128.6Y-96.925
X129.0Y-85.0
X129.0Y-87.0
X129.0Y-89.0
X129.0Y-91.0
X129.0Y-92.0
X129.0Y-93.0
X129.412Y-103.5
X130.0Y-77.0
X130.0Y-79.0
X130.0Y-81.0
X130.0Y-95.0
X130.0Y-97.0
X130.0Y-99.0
X130.0Y-101.0
X130.0Y-103.0
X130.0Y-105.0
X130.0Y-107.0
X130.0Y-109.0
X130.0Y-111.0
X130.0Y-112.0
T3
X120.6Y-107.152
X126.39Y-107.152
T2
G00X119.18Y-106.103
M15
G01X119.18Y-107.202
M16
G05
G00X119.18Y-110.433
M15
G01X119.18Y-111.232
M16
G05
G00X127.82Y-106.103
M15
G01X127.82Y-107.202
M16
G05
G00X127.82Y-110.433
M15
G01X127.82Y-111.232
M16
G05
M30
