%TF.GenerationSoftware,KiCad,Pcbnew,9.0.6-1.fc42*%
%TF.CreationDate,2025-12-19T16:16:40-05:00*%
%TF.ProjectId,HALOW-USB,48414c4f-572d-4555-9342-2e6b69636164,rev?*%
%TF.SameCoordinates,Original*%
%TF.FileFunction,Copper,L2,Bot*%
%TF.FilePolarity,Positive*%
%FSLAX46Y46*%
G04 Gerber Fmt 4.6, Leading zero omitted, Abs format (unit mm)*
G04 Created by KiCad (PCBNEW 9.0.6-1.fc42) date 2025-12-19 16:16:40*
%MOMM*%
%LPD*%
G01*
G04 APERTURE LIST*
%TA.AperFunction,ComponentPad*%
%ADD10C,0.650000*%
%TD*%
%TA.AperFunction,ComponentPad*%
%ADD11O,1.000000X2.100000*%
%TD*%
%TA.AperFunction,ComponentPad*%
%ADD12O,1.000000X1.800000*%
%TD*%
%TA.AperFunction,ViaPad*%
%ADD13C,0.450000*%
%TD*%
%TA.AperFunction,Conductor*%
%ADD14C,0.500000*%
%TD*%
%TA.AperFunction,Conductor*%
%ADD15C,0.400000*%
%TD*%
%TA.AperFunction,Conductor*%
%ADD16C,0.200000*%
%TD*%
G04 APERTURE END LIST*
D10*
%TO.P,U2,*%
%TO.N,*%
X120600000Y-107152500D03*
X126390000Y-107152500D03*
D11*
%TO.P,U2,1,SHELL*%
%TO.N,GND*%
X119180000Y-106652500D03*
%TO.P,U2,2,SHELL*%
X127820000Y-106652500D03*
D12*
%TO.P,U2,3,SHELL*%
X127820000Y-110832500D03*
%TO.P,U2,4,SHELL*%
X119180000Y-110832500D03*
%TD*%
D13*
%TO.N,GND*%
X125500000Y-101000000D03*
X127500000Y-99000000D03*
X127500000Y-101000000D03*
X125500000Y-103000000D03*
X125500000Y-99000000D03*
X121500000Y-103500000D03*
X121000000Y-101000000D03*
X121000000Y-100000000D03*
X122000000Y-98500000D03*
X121000000Y-98500000D03*
X120000000Y-98500000D03*
X119000000Y-98500000D03*
X118000000Y-98500000D03*
X117000000Y-98500000D03*
X116000000Y-98500000D03*
X118500000Y-99800000D03*
X119362500Y-101500000D03*
X129412500Y-103500000D03*
X128600000Y-96925000D03*
X126700000Y-96925000D03*
X124600000Y-96925000D03*
X119362500Y-95500000D03*
X123500000Y-102400000D03*
X129000000Y-93000000D03*
X129000000Y-92000000D03*
X127000000Y-92000000D03*
X125000000Y-92000000D03*
X123000000Y-92000000D03*
X121000000Y-92000000D03*
X119000000Y-92000000D03*
X117000000Y-93000000D03*
X117000000Y-87000000D03*
X117000000Y-89000000D03*
X117000000Y-91000000D03*
X119000000Y-91000000D03*
X121000000Y-91000000D03*
X123000000Y-91000000D03*
X125000000Y-91000000D03*
X127000000Y-91000000D03*
X129000000Y-91000000D03*
X129000000Y-89000000D03*
X127000000Y-89000000D03*
X125000000Y-89000000D03*
X123000000Y-89000000D03*
X121000000Y-89000000D03*
X119000000Y-89000000D03*
X119000000Y-87000000D03*
X121000000Y-87000000D03*
X123000000Y-87000000D03*
X125000000Y-87000000D03*
X127000000Y-87000000D03*
X129000000Y-87000000D03*
X129000000Y-85000000D03*
X127000000Y-85000000D03*
X125000000Y-85000000D03*
X123000000Y-85000000D03*
X121000000Y-85000000D03*
X119000000Y-85000000D03*
X117000000Y-85000000D03*
X117000000Y-83000000D03*
X117000000Y-81000000D03*
X117000000Y-77000000D03*
X119750000Y-83125000D03*
X120400000Y-81100000D03*
X120425000Y-81675000D03*
X120225000Y-82275000D03*
X119725000Y-82625000D03*
X117650000Y-81800000D03*
X117600000Y-82400000D03*
X117900000Y-83100000D03*
X118000000Y-81250000D03*
X122000000Y-81000000D03*
X122000000Y-79000000D03*
X124000000Y-79000000D03*
X126000000Y-79000000D03*
X128000000Y-79000000D03*
X130000000Y-81000000D03*
X130000000Y-79000000D03*
X130000000Y-95000000D03*
X130000000Y-97000000D03*
X130000000Y-99000000D03*
X130000000Y-101000000D03*
X130000000Y-103000000D03*
X130000000Y-105000000D03*
X130000000Y-107000000D03*
X130000000Y-109000000D03*
X130000000Y-111000000D03*
X130000000Y-112000000D03*
X128000000Y-112000000D03*
X126000000Y-112000000D03*
X124000000Y-112000000D03*
X122000000Y-112000000D03*
X120000000Y-112000000D03*
X118000000Y-112000000D03*
X116000000Y-112000000D03*
X116000000Y-111000000D03*
X116000000Y-109000000D03*
X116000000Y-107000000D03*
X116000000Y-105000000D03*
X116000000Y-103000000D03*
X116000000Y-101000000D03*
X116000000Y-99000000D03*
X116000000Y-97000000D03*
X116000000Y-95000000D03*
X116000000Y-93000000D03*
X116000000Y-91000000D03*
X116000000Y-89000000D03*
X116000000Y-87000000D03*
X116000000Y-85000000D03*
X116000000Y-83000000D03*
X116000000Y-81000000D03*
X116000000Y-79000000D03*
X118000000Y-77000000D03*
X116000000Y-77000000D03*
X120000000Y-77000000D03*
X122000000Y-77000000D03*
X124000000Y-77000000D03*
X126000000Y-77000000D03*
X128000000Y-77000000D03*
X130000000Y-77000000D03*
%TO.N,+3.3V*%
X117637500Y-96400000D03*
X120916635Y-96483364D03*
%TO.N,+5V*%
X123400000Y-101200000D03*
X117600000Y-102525000D03*
X117600000Y-105000000D03*
%TO.N,/D +*%
X122299479Y-97300521D03*
X120075000Y-94308981D03*
%TO.N,/D -*%
X122900521Y-96699479D03*
X120925000Y-94308981D03*
%TO.N,/USB/PRE D-*%
X122400000Y-104400000D03*
X123750000Y-104400000D03*
%TO.N,/USB/PRE D+*%
X124846140Y-103846140D03*
X123078125Y-103921875D03*
%TD*%
D14*
%TO.N,+3.3V*%
X120916635Y-96483364D02*
X117720864Y-96483364D01*
X117720864Y-96483364D02*
X117637500Y-96400000D01*
D15*
%TO.N,+5V*%
X117600000Y-105000000D02*
X117600000Y-102525000D01*
X120600000Y-102600000D02*
X121800000Y-101400000D01*
X117600000Y-102525000D02*
X117675000Y-102600000D01*
X117675000Y-102600000D02*
X120600000Y-102600000D01*
X121800000Y-101400000D02*
X123200000Y-101400000D01*
X123200000Y-101400000D02*
X123400000Y-101200000D01*
D16*
%TO.N,/D +*%
X122299479Y-97017678D02*
X122299479Y-97300521D01*
X120075000Y-94308981D02*
X120274999Y-94508980D01*
X120274999Y-94508980D02*
X120274999Y-94993198D01*
X120274999Y-94993198D02*
X122299479Y-97017678D01*
%TO.N,/D -*%
X120725001Y-94508980D02*
X120725001Y-94806802D01*
X120725001Y-94806802D02*
X122617678Y-96699479D01*
X122617678Y-96699479D02*
X122900521Y-96699479D01*
X120925000Y-94308981D02*
X120725001Y-94508980D01*
%TO.N,/USB/PRE D-*%
X123449943Y-104400000D02*
X123750000Y-104400000D01*
X122706307Y-104400000D02*
X122829182Y-104522875D01*
X122400000Y-104400000D02*
X122706307Y-104400000D01*
X122829182Y-104522875D02*
X123327068Y-104522875D01*
X123327068Y-104522875D02*
X123449943Y-104400000D01*
%TO.N,/USB/PRE D+*%
X123200000Y-103800000D02*
X123078125Y-103921875D01*
X124846140Y-103846140D02*
X124800000Y-103800000D01*
X124800000Y-103800000D02*
X123200000Y-103800000D01*
%TD*%
%TA.AperFunction,Conductor*%
%TO.N,GND*%
G36*
X130442539Y-76520185D02*
G01*
X130488294Y-76572989D01*
X130499500Y-76624500D01*
X130499500Y-112921947D01*
X130479815Y-112988986D01*
X130427011Y-113034741D01*
X130375500Y-113045947D01*
X115624500Y-113045947D01*
X115557461Y-113026262D01*
X115511706Y-112973458D01*
X115500500Y-112921947D01*
X115500500Y-110334004D01*
X118180000Y-110334004D01*
X118180000Y-110582500D01*
X118880000Y-110582500D01*
X118880000Y-111082500D01*
X118180000Y-111082500D01*
X118180000Y-111330995D01*
X118218427Y-111524181D01*
X118218430Y-111524193D01*
X118293807Y-111706171D01*
X118293814Y-111706184D01*
X118403248Y-111869962D01*
X118403251Y-111869966D01*
X118542533Y-112009248D01*
X118542537Y-112009251D01*
X118706315Y-112118685D01*
X118706328Y-112118692D01*
X118888308Y-112194069D01*
X118930000Y-112202362D01*
X118930000Y-111399487D01*
X118939940Y-111416704D01*
X118995795Y-111472559D01*
X119064204Y-111512055D01*
X119140504Y-111532499D01*
X119219496Y-111532499D01*
X119295796Y-111512055D01*
X119364205Y-111472559D01*
X119420060Y-111416704D01*
X119430000Y-111399487D01*
X119430000Y-112202362D01*
X119471690Y-112194069D01*
X119471692Y-112194069D01*
X119653671Y-112118692D01*
X119653684Y-112118685D01*
X119817462Y-112009251D01*
X119817466Y-112009248D01*
X119956748Y-111869966D01*
X119956751Y-111869962D01*
X120066185Y-111706184D01*
X120066192Y-111706171D01*
X120141569Y-111524193D01*
X120141572Y-111524181D01*
X120179999Y-111330995D01*
X120180000Y-111330992D01*
X120180000Y-111082500D01*
X119480000Y-111082500D01*
X119480000Y-110582500D01*
X120180000Y-110582500D01*
X120180000Y-110334008D01*
X120179999Y-110334004D01*
X126820000Y-110334004D01*
X126820000Y-110582500D01*
X127520000Y-110582500D01*
X127520000Y-111082500D01*
X126820000Y-111082500D01*
X126820000Y-111330995D01*
X126858427Y-111524181D01*
X126858430Y-111524193D01*
X126933807Y-111706171D01*
X126933814Y-111706184D01*
X127043248Y-111869962D01*
X127043251Y-111869966D01*
X127182533Y-112009248D01*
X127182537Y-112009251D01*
X127346315Y-112118685D01*
X127346328Y-112118692D01*
X127528308Y-112194069D01*
X127570000Y-112202362D01*
X127570000Y-111399487D01*
X127579940Y-111416704D01*
X127635795Y-111472559D01*
X127704204Y-111512055D01*
X127780504Y-111532499D01*
X127859496Y-111532499D01*
X127935796Y-111512055D01*
X128004205Y-111472559D01*
X128060060Y-111416704D01*
X128070000Y-111399487D01*
X128070000Y-112202362D01*
X128111690Y-112194069D01*
X128111692Y-112194069D01*
X128293671Y-112118692D01*
X128293684Y-112118685D01*
X128457462Y-112009251D01*
X128457466Y-112009248D01*
X128596748Y-111869966D01*
X128596751Y-111869962D01*
X128706185Y-111706184D01*
X128706192Y-111706171D01*
X128781569Y-111524193D01*
X128781572Y-111524181D01*
X128819999Y-111330995D01*
X128820000Y-111330992D01*
X128820000Y-111082500D01*
X128120000Y-111082500D01*
X128120000Y-110582500D01*
X128820000Y-110582500D01*
X128820000Y-110334008D01*
X128819999Y-110334004D01*
X128781572Y-110140818D01*
X128781569Y-110140806D01*
X128706192Y-109958828D01*
X128706185Y-109958815D01*
X128596751Y-109795037D01*
X128596748Y-109795033D01*
X128457466Y-109655751D01*
X128457462Y-109655748D01*
X128293684Y-109546314D01*
X128293671Y-109546307D01*
X128111691Y-109470929D01*
X128111683Y-109470927D01*
X128070000Y-109462635D01*
X128070000Y-110265512D01*
X128060060Y-110248296D01*
X128004205Y-110192441D01*
X127935796Y-110152945D01*
X127859496Y-110132501D01*
X127780504Y-110132501D01*
X127704204Y-110152945D01*
X127635795Y-110192441D01*
X127579940Y-110248296D01*
X127570000Y-110265512D01*
X127570000Y-109462636D01*
X127569999Y-109462635D01*
X127528316Y-109470927D01*
X127528308Y-109470929D01*
X127346328Y-109546307D01*
X127346315Y-109546314D01*
X127182537Y-109655748D01*
X127182533Y-109655751D01*
X127043251Y-109795033D01*
X127043248Y-109795037D01*
X126933814Y-109958815D01*
X126933807Y-109958828D01*
X126858430Y-110140806D01*
X126858427Y-110140818D01*
X126820000Y-110334004D01*
X120179999Y-110334004D01*
X120141572Y-110140818D01*
X120141569Y-110140806D01*
X120066192Y-109958828D01*
X120066185Y-109958815D01*
X119956751Y-109795037D01*
X119956748Y-109795033D01*
X119817466Y-109655751D01*
X119817462Y-109655748D01*
X119653684Y-109546314D01*
X119653671Y-109546307D01*
X119471691Y-109470929D01*
X119471683Y-109470927D01*
X119430000Y-109462635D01*
X119430000Y-110265512D01*
X119420060Y-110248296D01*
X119364205Y-110192441D01*
X119295796Y-110152945D01*
X119219496Y-110132501D01*
X119140504Y-110132501D01*
X119064204Y-110152945D01*
X118995795Y-110192441D01*
X118939940Y-110248296D01*
X118930000Y-110265512D01*
X118930000Y-109462636D01*
X118929999Y-109462635D01*
X118888316Y-109470927D01*
X118888308Y-109470929D01*
X118706328Y-109546307D01*
X118706315Y-109546314D01*
X118542537Y-109655748D01*
X118542533Y-109655751D01*
X118403251Y-109795033D01*
X118403248Y-109795037D01*
X118293814Y-109958815D01*
X118293807Y-109958828D01*
X118218430Y-110140806D01*
X118218427Y-110140818D01*
X118180000Y-110334004D01*
X115500500Y-110334004D01*
X115500500Y-102596457D01*
X116874499Y-102596457D01*
X116897117Y-102710156D01*
X116899500Y-102734348D01*
X116899500Y-104790651D01*
X116897117Y-104814843D01*
X116874500Y-104928542D01*
X116874500Y-104928545D01*
X116874500Y-105071455D01*
X116874500Y-105071457D01*
X116874499Y-105071457D01*
X116902379Y-105211614D01*
X116902380Y-105211618D01*
X116902381Y-105211620D01*
X116917703Y-105248611D01*
X116957069Y-105343650D01*
X116957074Y-105343659D01*
X117036467Y-105462478D01*
X117036470Y-105462482D01*
X117137517Y-105563529D01*
X117137521Y-105563532D01*
X117256340Y-105642925D01*
X117256346Y-105642928D01*
X117256347Y-105642929D01*
X117388380Y-105697619D01*
X117388384Y-105697619D01*
X117388385Y-105697620D01*
X117528542Y-105725500D01*
X117528545Y-105725500D01*
X117671457Y-105725500D01*
X117765751Y-105706742D01*
X117811620Y-105697619D01*
X117943653Y-105642929D01*
X118062479Y-105563532D01*
X118062742Y-105563268D01*
X118062915Y-105563174D01*
X118067189Y-105559667D01*
X118067853Y-105560477D01*
X118124060Y-105529779D01*
X118193752Y-105534756D01*
X118249690Y-105576621D01*
X118274114Y-105642082D01*
X118264993Y-105698394D01*
X118218428Y-105810815D01*
X118218427Y-105810818D01*
X118180000Y-106004004D01*
X118180000Y-106402500D01*
X118880000Y-106402500D01*
X118880000Y-106902500D01*
X118180000Y-106902500D01*
X118180000Y-107300995D01*
X118218427Y-107494181D01*
X118218430Y-107494193D01*
X118293807Y-107676171D01*
X118293814Y-107676184D01*
X118403248Y-107839962D01*
X118403251Y-107839966D01*
X118542533Y-107979248D01*
X118542537Y-107979251D01*
X118706315Y-108088685D01*
X118706328Y-108088692D01*
X118888308Y-108164069D01*
X118930000Y-108172362D01*
X118930000Y-107369487D01*
X118939940Y-107386704D01*
X118995795Y-107442559D01*
X119064204Y-107482055D01*
X119140504Y-107502499D01*
X119219496Y-107502499D01*
X119295796Y-107482055D01*
X119364205Y-107442559D01*
X119420060Y-107386704D01*
X119430000Y-107369487D01*
X119430000Y-108172362D01*
X119471690Y-108164069D01*
X119471692Y-108164069D01*
X119653671Y-108088692D01*
X119653684Y-108088685D01*
X119817461Y-107979252D01*
X119959393Y-107837320D01*
X120020716Y-107803835D01*
X120090408Y-107808819D01*
X120115965Y-107821899D01*
X120208977Y-107884047D01*
X120208980Y-107884049D01*
X120359206Y-107946274D01*
X120359211Y-107946276D01*
X120359215Y-107946276D01*
X120359216Y-107946277D01*
X120518692Y-107978000D01*
X120518695Y-107978000D01*
X120681307Y-107978000D01*
X120788598Y-107956657D01*
X120840789Y-107946276D01*
X120991021Y-107884048D01*
X120991023Y-107884047D01*
X121093883Y-107815318D01*
X121126225Y-107793708D01*
X121241208Y-107678725D01*
X121331548Y-107543521D01*
X121393776Y-107393289D01*
X121412135Y-107300995D01*
X121425500Y-107233807D01*
X125564499Y-107233807D01*
X125596222Y-107393283D01*
X125596225Y-107393293D01*
X125658450Y-107543519D01*
X125658452Y-107543523D01*
X125748788Y-107678720D01*
X125748794Y-107678728D01*
X125863771Y-107793705D01*
X125863779Y-107793711D01*
X125998976Y-107884047D01*
X125998980Y-107884049D01*
X126149206Y-107946274D01*
X126149211Y-107946276D01*
X126149215Y-107946276D01*
X126149216Y-107946277D01*
X126308692Y-107978000D01*
X126308695Y-107978000D01*
X126471307Y-107978000D01*
X126578598Y-107956657D01*
X126630789Y-107946276D01*
X126781021Y-107884048D01*
X126880301Y-107817711D01*
X126946976Y-107796834D01*
X127014356Y-107815318D01*
X127038321Y-107836275D01*
X127038941Y-107835656D01*
X127182533Y-107979248D01*
X127182537Y-107979251D01*
X127346315Y-108088685D01*
X127346328Y-108088692D01*
X127528308Y-108164069D01*
X127570000Y-108172362D01*
X127570000Y-107369487D01*
X127579940Y-107386704D01*
X127635795Y-107442559D01*
X127704204Y-107482055D01*
X127780504Y-107502499D01*
X127859496Y-107502499D01*
X127935796Y-107482055D01*
X128004205Y-107442559D01*
X128060060Y-107386704D01*
X128070000Y-107369487D01*
X128070000Y-108172362D01*
X128111690Y-108164069D01*
X128111692Y-108164069D01*
X128293671Y-108088692D01*
X128293684Y-108088685D01*
X128457462Y-107979251D01*
X128457466Y-107979248D01*
X128596748Y-107839966D01*
X128596751Y-107839962D01*
X128706185Y-107676184D01*
X128706192Y-107676171D01*
X128781569Y-107494193D01*
X128781572Y-107494181D01*
X128819999Y-107300995D01*
X128820000Y-107300992D01*
X128820000Y-106902500D01*
X128120000Y-106902500D01*
X128120000Y-106402500D01*
X128820000Y-106402500D01*
X128820000Y-106004008D01*
X128819999Y-106004004D01*
X128781572Y-105810818D01*
X128781569Y-105810806D01*
X128706192Y-105628828D01*
X128706185Y-105628815D01*
X128596751Y-105465037D01*
X128596748Y-105465033D01*
X128457466Y-105325751D01*
X128457462Y-105325748D01*
X128293684Y-105216314D01*
X128293671Y-105216307D01*
X128111691Y-105140929D01*
X128111683Y-105140927D01*
X128070000Y-105132635D01*
X128070000Y-105935512D01*
X128060060Y-105918296D01*
X128004205Y-105862441D01*
X127935796Y-105822945D01*
X127859496Y-105802501D01*
X127780504Y-105802501D01*
X127704204Y-105822945D01*
X127635795Y-105862441D01*
X127579940Y-105918296D01*
X127570000Y-105935512D01*
X127570000Y-105132636D01*
X127569999Y-105132635D01*
X127528316Y-105140927D01*
X127528308Y-105140929D01*
X127346328Y-105216307D01*
X127346315Y-105216314D01*
X127182537Y-105325748D01*
X127182533Y-105325751D01*
X127043251Y-105465033D01*
X127043248Y-105465037D01*
X126933814Y-105628815D01*
X126933807Y-105628828D01*
X126858430Y-105810806D01*
X126858427Y-105810818D01*
X126820000Y-106004004D01*
X126820000Y-106251518D01*
X126800315Y-106318557D01*
X126747511Y-106364312D01*
X126678353Y-106374256D01*
X126648551Y-106366080D01*
X126630797Y-106358726D01*
X126630783Y-106358722D01*
X126471307Y-106327000D01*
X126471305Y-106327000D01*
X126308695Y-106327000D01*
X126308693Y-106327000D01*
X126149216Y-106358722D01*
X126149206Y-106358725D01*
X125998980Y-106420950D01*
X125998976Y-106420952D01*
X125863779Y-106511288D01*
X125863771Y-106511294D01*
X125748794Y-106626271D01*
X125748788Y-106626279D01*
X125658452Y-106761476D01*
X125658450Y-106761480D01*
X125596225Y-106911706D01*
X125596222Y-106911716D01*
X125564500Y-107071192D01*
X125564500Y-107071195D01*
X125564500Y-107233805D01*
X125564500Y-107233807D01*
X125564499Y-107233807D01*
X121425500Y-107233807D01*
X121425500Y-107071192D01*
X121393777Y-106911716D01*
X121393776Y-106911715D01*
X121393776Y-106911711D01*
X121389961Y-106902500D01*
X121331549Y-106761480D01*
X121331547Y-106761476D01*
X121241211Y-106626279D01*
X121241205Y-106626271D01*
X121126228Y-106511294D01*
X121126220Y-106511288D01*
X120991023Y-106420952D01*
X120991019Y-106420950D01*
X120840793Y-106358725D01*
X120840783Y-106358722D01*
X120681307Y-106327000D01*
X120681305Y-106327000D01*
X120518695Y-106327000D01*
X120518693Y-106327000D01*
X120359216Y-106358722D01*
X120359207Y-106358725D01*
X120351448Y-106361939D01*
X120281978Y-106369405D01*
X120219500Y-106338127D01*
X120183850Y-106278037D01*
X120180000Y-106247376D01*
X120180000Y-106004008D01*
X120179999Y-106004004D01*
X120141572Y-105810818D01*
X120141569Y-105810806D01*
X120066192Y-105628828D01*
X120066185Y-105628815D01*
X119956751Y-105465037D01*
X119956748Y-105465033D01*
X119817466Y-105325751D01*
X119817462Y-105325748D01*
X119653684Y-105216314D01*
X119653671Y-105216307D01*
X119471691Y-105140929D01*
X119471683Y-105140927D01*
X119430000Y-105132635D01*
X119430000Y-105935512D01*
X119420060Y-105918296D01*
X119364205Y-105862441D01*
X119295796Y-105822945D01*
X119219496Y-105802501D01*
X119140504Y-105802501D01*
X119064204Y-105822945D01*
X118995795Y-105862441D01*
X118939940Y-105918296D01*
X118930000Y-105935512D01*
X118930000Y-105132636D01*
X118929999Y-105132635D01*
X118888316Y-105140927D01*
X118888308Y-105140929D01*
X118706328Y-105216307D01*
X118706315Y-105216314D01*
X118542537Y-105325748D01*
X118484537Y-105383748D01*
X118423213Y-105417232D01*
X118353522Y-105412247D01*
X118297588Y-105370376D01*
X118273172Y-105304911D01*
X118282295Y-105248614D01*
X118297619Y-105211620D01*
X118317868Y-105109824D01*
X118325500Y-105071457D01*
X118325500Y-104928542D01*
X118302883Y-104814843D01*
X118300500Y-104790651D01*
X118300500Y-104471457D01*
X121674499Y-104471457D01*
X121702379Y-104611614D01*
X121702381Y-104611620D01*
X121757069Y-104743650D01*
X121757074Y-104743659D01*
X121836467Y-104862478D01*
X121836470Y-104862482D01*
X121937517Y-104963529D01*
X121937521Y-104963532D01*
X122056340Y-105042925D01*
X122056346Y-105042928D01*
X122056347Y-105042929D01*
X122188380Y-105097619D01*
X122188384Y-105097619D01*
X122188385Y-105097620D01*
X122328542Y-105125500D01*
X122328545Y-105125500D01*
X122471457Y-105125500D01*
X122607588Y-105098421D01*
X122620192Y-105098833D01*
X122628828Y-105096073D01*
X122663867Y-105100262D01*
X122709201Y-105112409D01*
X122750124Y-105123375D01*
X122750125Y-105123375D01*
X123240399Y-105123375D01*
X123240415Y-105123376D01*
X123248011Y-105123376D01*
X123406124Y-105123376D01*
X123406125Y-105123376D01*
X123489713Y-105100978D01*
X123546000Y-105099135D01*
X123678542Y-105125500D01*
X123678545Y-105125500D01*
X123821457Y-105125500D01*
X123944733Y-105100978D01*
X123961620Y-105097619D01*
X124093653Y-105042929D01*
X124212479Y-104963532D01*
X124313532Y-104862479D01*
X124392929Y-104743653D01*
X124447619Y-104611620D01*
X124447619Y-104611619D01*
X124449950Y-104605992D01*
X124451533Y-104606648D01*
X124485346Y-104555046D01*
X124549156Y-104526586D01*
X124613168Y-104534914D01*
X124634520Y-104543759D01*
X124634524Y-104543759D01*
X124634525Y-104543760D01*
X124774682Y-104571640D01*
X124774685Y-104571640D01*
X124917597Y-104571640D01*
X125011891Y-104552882D01*
X125057760Y-104543759D01*
X125189793Y-104489069D01*
X125308619Y-104409672D01*
X125409672Y-104308619D01*
X125489069Y-104189793D01*
X125543759Y-104057760D01*
X125552882Y-104011891D01*
X125571640Y-103917597D01*
X125571640Y-103774682D01*
X125543760Y-103634525D01*
X125543759Y-103634524D01*
X125543759Y-103634520D01*
X125489069Y-103502487D01*
X125489068Y-103502486D01*
X125489065Y-103502480D01*
X125409672Y-103383661D01*
X125409669Y-103383657D01*
X125308622Y-103282610D01*
X125308618Y-103282607D01*
X125189799Y-103203214D01*
X125189790Y-103203209D01*
X125057760Y-103148521D01*
X125057754Y-103148519D01*
X124917597Y-103120640D01*
X124917595Y-103120640D01*
X124774685Y-103120640D01*
X124774683Y-103120640D01*
X124634525Y-103148519D01*
X124634519Y-103148521D01*
X124534234Y-103190061D01*
X124486781Y-103199500D01*
X123177503Y-103199500D01*
X123153312Y-103197117D01*
X123149580Y-103196375D01*
X123006670Y-103196375D01*
X123006668Y-103196375D01*
X122866510Y-103224254D01*
X122866504Y-103224256D01*
X122734474Y-103278944D01*
X122734465Y-103278949D01*
X122615646Y-103358342D01*
X122615642Y-103358345D01*
X122514595Y-103459392D01*
X122514592Y-103459396D01*
X122435199Y-103578215D01*
X122435191Y-103578230D01*
X122426597Y-103598979D01*
X122382756Y-103653382D01*
X122334117Y-103671286D01*
X122334520Y-103673311D01*
X122188385Y-103702379D01*
X122188379Y-103702381D01*
X122056349Y-103757069D01*
X122056340Y-103757074D01*
X121937521Y-103836467D01*
X121937517Y-103836470D01*
X121836470Y-103937517D01*
X121836467Y-103937521D01*
X121757074Y-104056340D01*
X121757069Y-104056349D01*
X121702381Y-104188379D01*
X121702379Y-104188385D01*
X121674500Y-104328542D01*
X121674500Y-104328545D01*
X121674500Y-104471455D01*
X121674500Y-104471457D01*
X121674499Y-104471457D01*
X118300500Y-104471457D01*
X118300500Y-103424500D01*
X118320185Y-103357461D01*
X118372989Y-103311706D01*
X118424500Y-103300500D01*
X120668996Y-103300500D01*
X120760040Y-103282389D01*
X120804328Y-103273580D01*
X120868069Y-103247177D01*
X120931807Y-103220777D01*
X120931808Y-103220776D01*
X120931811Y-103220775D01*
X121046543Y-103144114D01*
X122053838Y-102136819D01*
X122115161Y-102103334D01*
X122141519Y-102100500D01*
X123268996Y-102100500D01*
X123360040Y-102082389D01*
X123404328Y-102073580D01*
X123468069Y-102047177D01*
X123531807Y-102020777D01*
X123531808Y-102020776D01*
X123531811Y-102020775D01*
X123646543Y-101944114D01*
X123747297Y-101843358D01*
X123766082Y-101827941D01*
X123862479Y-101763532D01*
X123963532Y-101662479D01*
X124042929Y-101543653D01*
X124097619Y-101411620D01*
X124125500Y-101271455D01*
X124125500Y-101128545D01*
X124125500Y-101128542D01*
X124097620Y-100988385D01*
X124097619Y-100988384D01*
X124097619Y-100988380D01*
X124042929Y-100856347D01*
X124042928Y-100856346D01*
X124042925Y-100856340D01*
X123963532Y-100737521D01*
X123963529Y-100737517D01*
X123862482Y-100636470D01*
X123862478Y-100636467D01*
X123743659Y-100557074D01*
X123743650Y-100557069D01*
X123611620Y-100502381D01*
X123611614Y-100502379D01*
X123471457Y-100474500D01*
X123471455Y-100474500D01*
X123328545Y-100474500D01*
X123328543Y-100474500D01*
X123188385Y-100502379D01*
X123188379Y-100502381D01*
X123056349Y-100557069D01*
X123056340Y-100557074D01*
X122937521Y-100636467D01*
X122937517Y-100636470D01*
X122910807Y-100663181D01*
X122849484Y-100696666D01*
X122823126Y-100699500D01*
X121731003Y-100699500D01*
X121622590Y-100721065D01*
X121622589Y-100721065D01*
X121595671Y-100726420D01*
X121468190Y-100779224D01*
X121353454Y-100855887D01*
X121353453Y-100855888D01*
X120346162Y-101863181D01*
X120284839Y-101896666D01*
X120258481Y-101899500D01*
X118007320Y-101899500D01*
X117948861Y-101884855D01*
X117943651Y-101882070D01*
X117811620Y-101827381D01*
X117811614Y-101827379D01*
X117671457Y-101799500D01*
X117671455Y-101799500D01*
X117528545Y-101799500D01*
X117528543Y-101799500D01*
X117388385Y-101827379D01*
X117388379Y-101827381D01*
X117256349Y-101882069D01*
X117256340Y-101882074D01*
X117137521Y-101961467D01*
X117137517Y-101961470D01*
X117036470Y-102062517D01*
X117036467Y-102062521D01*
X116957074Y-102181340D01*
X116957069Y-102181349D01*
X116902381Y-102313379D01*
X116902379Y-102313385D01*
X116874500Y-102453542D01*
X116874500Y-102453545D01*
X116874500Y-102596455D01*
X116874500Y-102596457D01*
X116874499Y-102596457D01*
X115500500Y-102596457D01*
X115500500Y-96473919D01*
X116886999Y-96473919D01*
X116915840Y-96618906D01*
X116915842Y-96618912D01*
X116972416Y-96755494D01*
X117054548Y-96878416D01*
X117152598Y-96976465D01*
X117219262Y-97043129D01*
X117242449Y-97066316D01*
X117365362Y-97148444D01*
X117365375Y-97148451D01*
X117418392Y-97170411D01*
X117501951Y-97205022D01*
X117501955Y-97205022D01*
X117501956Y-97205023D01*
X117646943Y-97233864D01*
X117646946Y-97233864D01*
X120990555Y-97233864D01*
X121088097Y-97214460D01*
X121135548Y-97205022D01*
X121241182Y-97161266D01*
X121272123Y-97148451D01*
X121272123Y-97148450D01*
X121272130Y-97148448D01*
X121272135Y-97148444D01*
X121272138Y-97148443D01*
X121302591Y-97128094D01*
X121372679Y-97081263D01*
X121402973Y-97071776D01*
X121432723Y-97060681D01*
X121436077Y-97061410D01*
X121439354Y-97060385D01*
X121469970Y-97068783D01*
X121500996Y-97075533D01*
X121504710Y-97078313D01*
X121506735Y-97078869D01*
X121529250Y-97096684D01*
X121541654Y-97109088D01*
X121575139Y-97170411D01*
X121575592Y-97220953D01*
X121573979Y-97229064D01*
X121573979Y-97229066D01*
X121573979Y-97371976D01*
X121573979Y-97371978D01*
X121573978Y-97371978D01*
X121601858Y-97512135D01*
X121601860Y-97512141D01*
X121656548Y-97644171D01*
X121656553Y-97644180D01*
X121735946Y-97762999D01*
X121735949Y-97763003D01*
X121836996Y-97864050D01*
X121837000Y-97864053D01*
X121955819Y-97943446D01*
X121955825Y-97943449D01*
X121955826Y-97943450D01*
X122087859Y-97998140D01*
X122087863Y-97998140D01*
X122087864Y-97998141D01*
X122228021Y-98026021D01*
X122228024Y-98026021D01*
X122370936Y-98026021D01*
X122465230Y-98007263D01*
X122511099Y-97998140D01*
X122643132Y-97943450D01*
X122761958Y-97864053D01*
X122863011Y-97763000D01*
X122942408Y-97644174D01*
X122997098Y-97512141D01*
X123000020Y-97497447D01*
X123032404Y-97435537D01*
X123093120Y-97400962D01*
X123097425Y-97400025D01*
X123112141Y-97397098D01*
X123244174Y-97342408D01*
X123363000Y-97263011D01*
X123464053Y-97161958D01*
X123543450Y-97043132D01*
X123598140Y-96911099D01*
X123626021Y-96770934D01*
X123626021Y-96628024D01*
X123626021Y-96628021D01*
X123598141Y-96487864D01*
X123598140Y-96487863D01*
X123598140Y-96487859D01*
X123543450Y-96355826D01*
X123543449Y-96355825D01*
X123543446Y-96355819D01*
X123464053Y-96237000D01*
X123464050Y-96236996D01*
X123363003Y-96135949D01*
X123362999Y-96135946D01*
X123244180Y-96056553D01*
X123244171Y-96056548D01*
X123112141Y-96001860D01*
X123112135Y-96001858D01*
X122971978Y-95973979D01*
X122971976Y-95973979D01*
X122829066Y-95973979D01*
X122829065Y-95973979D01*
X122820953Y-95975592D01*
X122751362Y-95969360D01*
X122709088Y-95941654D01*
X121580662Y-94813228D01*
X121547177Y-94751905D01*
X121552161Y-94682213D01*
X121565239Y-94656659D01*
X121567929Y-94652634D01*
X121622619Y-94520601D01*
X121650500Y-94380436D01*
X121650500Y-94237526D01*
X121650500Y-94237523D01*
X121622620Y-94097366D01*
X121622619Y-94097365D01*
X121622619Y-94097361D01*
X121567929Y-93965328D01*
X121567928Y-93965327D01*
X121567925Y-93965321D01*
X121488532Y-93846502D01*
X121488529Y-93846498D01*
X121387482Y-93745451D01*
X121387478Y-93745448D01*
X121268659Y-93666055D01*
X121268650Y-93666050D01*
X121136620Y-93611362D01*
X121136614Y-93611360D01*
X120996457Y-93583481D01*
X120996455Y-93583481D01*
X120853545Y-93583481D01*
X120853543Y-93583481D01*
X120713385Y-93611360D01*
X120713379Y-93611362D01*
X120581344Y-93666052D01*
X120581343Y-93666053D01*
X120568887Y-93674376D01*
X120502209Y-93695252D01*
X120434830Y-93676765D01*
X120431113Y-93674376D01*
X120418656Y-93666053D01*
X120418655Y-93666052D01*
X120286620Y-93611362D01*
X120286614Y-93611360D01*
X120146457Y-93583481D01*
X120146455Y-93583481D01*
X120003545Y-93583481D01*
X120003543Y-93583481D01*
X119863385Y-93611360D01*
X119863379Y-93611362D01*
X119731349Y-93666050D01*
X119731340Y-93666055D01*
X119612521Y-93745448D01*
X119612517Y-93745451D01*
X119511470Y-93846498D01*
X119511467Y-93846502D01*
X119432074Y-93965321D01*
X119432069Y-93965330D01*
X119377381Y-94097360D01*
X119377379Y-94097366D01*
X119349500Y-94237523D01*
X119349500Y-94237526D01*
X119349500Y-94380436D01*
X119349500Y-94380438D01*
X119349499Y-94380438D01*
X119377379Y-94520595D01*
X119377381Y-94520601D01*
X119432069Y-94652631D01*
X119432074Y-94652640D01*
X119511467Y-94771459D01*
X119511470Y-94771463D01*
X119612518Y-94872511D01*
X119612521Y-94872513D01*
X119619385Y-94877099D01*
X119664192Y-94930708D01*
X119674498Y-94980203D01*
X119674498Y-95072252D01*
X119674497Y-95072252D01*
X119715422Y-95224983D01*
X119744357Y-95275098D01*
X119744358Y-95275102D01*
X119744359Y-95275102D01*
X119794478Y-95361912D01*
X119794480Y-95361915D01*
X119913348Y-95480783D01*
X119913354Y-95480788D01*
X119953749Y-95521183D01*
X119987234Y-95582506D01*
X119982250Y-95652198D01*
X119940378Y-95708131D01*
X119874914Y-95732548D01*
X119866068Y-95732864D01*
X118012705Y-95732864D01*
X117965252Y-95723425D01*
X117856412Y-95678342D01*
X117856406Y-95678340D01*
X117711419Y-95649500D01*
X117711417Y-95649500D01*
X117563583Y-95649500D01*
X117563581Y-95649500D01*
X117418593Y-95678340D01*
X117418587Y-95678342D01*
X117282009Y-95734914D01*
X117282002Y-95734918D01*
X117219918Y-95776400D01*
X117159084Y-95817048D01*
X117159082Y-95817049D01*
X117159079Y-95817052D01*
X117159078Y-95817052D01*
X117054552Y-95921578D01*
X117054552Y-95921579D01*
X117054549Y-95921582D01*
X117054548Y-95921584D01*
X117041138Y-95941654D01*
X116972418Y-96044502D01*
X116972414Y-96044509D01*
X116915842Y-96181087D01*
X116915840Y-96181093D01*
X116887000Y-96326080D01*
X116887000Y-96326083D01*
X116887000Y-96473917D01*
X116887000Y-96473919D01*
X116886999Y-96473919D01*
X115500500Y-96473919D01*
X115500500Y-76624500D01*
X115520185Y-76557461D01*
X115572989Y-76511706D01*
X115624500Y-76500500D01*
X130375500Y-76500500D01*
X130442539Y-76520185D01*
G37*
%TD.AperFunction*%
%TD*%
M02*
