%TF.GenerationSoftware,KiCad,Pcbnew,9.0.6-1.fc42*%
%TF.CreationDate,2025-12-19T16:16:41-05:00*%
%TF.ProjectId,HALOW-USB,48414c4f-572d-4555-9342-2e6b69636164,rev?*%
%TF.SameCoordinates,Original*%
%TF.FileFunction,Legend,Bot*%
%TF.FilePolarity,Positive*%
%FSLAX46Y46*%
G04 Gerber Fmt 4.6, Leading zero omitted, Abs format (unit mm)*
G04 Created by KiCad (PCBNEW 9.0.6-1.fc42) date 2025-12-19 16:16:41*
%MOMM*%
%LPD*%
G01*
G04 APERTURE LIST*
%ADD10C,0.150000*%
%ADD11C,0.000000*%
G04 APERTURE END LIST*
D10*
X127091792Y-108769819D02*
X127425125Y-108293628D01*
X127663220Y-108769819D02*
X127663220Y-107769819D01*
X127663220Y-107769819D02*
X127282268Y-107769819D01*
X127282268Y-107769819D02*
X127187030Y-107817438D01*
X127187030Y-107817438D02*
X127139411Y-107865057D01*
X127139411Y-107865057D02*
X127091792Y-107960295D01*
X127091792Y-107960295D02*
X127091792Y-108103152D01*
X127091792Y-108103152D02*
X127139411Y-108198390D01*
X127139411Y-108198390D02*
X127187030Y-108246009D01*
X127187030Y-108246009D02*
X127282268Y-108293628D01*
X127282268Y-108293628D02*
X127663220Y-108293628D01*
X126472744Y-107769819D02*
X126377506Y-107769819D01*
X126377506Y-107769819D02*
X126282268Y-107817438D01*
X126282268Y-107817438D02*
X126234649Y-107865057D01*
X126234649Y-107865057D02*
X126187030Y-107960295D01*
X126187030Y-107960295D02*
X126139411Y-108150771D01*
X126139411Y-108150771D02*
X126139411Y-108388866D01*
X126139411Y-108388866D02*
X126187030Y-108579342D01*
X126187030Y-108579342D02*
X126234649Y-108674580D01*
X126234649Y-108674580D02*
X126282268Y-108722200D01*
X126282268Y-108722200D02*
X126377506Y-108769819D01*
X126377506Y-108769819D02*
X126472744Y-108769819D01*
X126472744Y-108769819D02*
X126567982Y-108722200D01*
X126567982Y-108722200D02*
X126615601Y-108674580D01*
X126615601Y-108674580D02*
X126663220Y-108579342D01*
X126663220Y-108579342D02*
X126710839Y-108388866D01*
X126710839Y-108388866D02*
X126710839Y-108150771D01*
X126710839Y-108150771D02*
X126663220Y-107960295D01*
X126663220Y-107960295D02*
X126615601Y-107865057D01*
X126615601Y-107865057D02*
X126567982Y-107817438D01*
X126567982Y-107817438D02*
X126472744Y-107769819D01*
X125187030Y-108769819D02*
X125758458Y-108769819D01*
X125472744Y-108769819D02*
X125472744Y-107769819D01*
X125472744Y-107769819D02*
X125567982Y-107912676D01*
X125567982Y-107912676D02*
X125663220Y-108007914D01*
X125663220Y-108007914D02*
X125758458Y-108055533D01*
X124758458Y-108674580D02*
X124710839Y-108722200D01*
X124710839Y-108722200D02*
X124758458Y-108769819D01*
X124758458Y-108769819D02*
X124806077Y-108722200D01*
X124806077Y-108722200D02*
X124758458Y-108674580D01*
X124758458Y-108674580D02*
X124758458Y-108769819D01*
X123520363Y-108769819D02*
X123520363Y-107769819D01*
X123520363Y-108246009D02*
X122948935Y-108246009D01*
X122948935Y-108769819D02*
X122948935Y-107769819D01*
X122282268Y-107769819D02*
X122091792Y-107769819D01*
X122091792Y-107769819D02*
X121996554Y-107817438D01*
X121996554Y-107817438D02*
X121901316Y-107912676D01*
X121901316Y-107912676D02*
X121853697Y-108103152D01*
X121853697Y-108103152D02*
X121853697Y-108436485D01*
X121853697Y-108436485D02*
X121901316Y-108626961D01*
X121901316Y-108626961D02*
X121996554Y-108722200D01*
X121996554Y-108722200D02*
X122091792Y-108769819D01*
X122091792Y-108769819D02*
X122282268Y-108769819D01*
X122282268Y-108769819D02*
X122377506Y-108722200D01*
X122377506Y-108722200D02*
X122472744Y-108626961D01*
X122472744Y-108626961D02*
X122520363Y-108436485D01*
X122520363Y-108436485D02*
X122520363Y-108103152D01*
X122520363Y-108103152D02*
X122472744Y-107912676D01*
X122472744Y-107912676D02*
X122377506Y-107817438D01*
X122377506Y-107817438D02*
X122282268Y-107769819D01*
X121567982Y-107769819D02*
X120996554Y-107769819D01*
X121282268Y-108769819D02*
X121282268Y-107769819D01*
X120663220Y-108769819D02*
X120663220Y-107769819D01*
X120663220Y-107769819D02*
X120282268Y-107769819D01*
X120282268Y-107769819D02*
X120187030Y-107817438D01*
X120187030Y-107817438D02*
X120139411Y-107865057D01*
X120139411Y-107865057D02*
X120091792Y-107960295D01*
X120091792Y-107960295D02*
X120091792Y-108103152D01*
X120091792Y-108103152D02*
X120139411Y-108198390D01*
X120139411Y-108198390D02*
X120187030Y-108246009D01*
X120187030Y-108246009D02*
X120282268Y-108293628D01*
X120282268Y-108293628D02*
X120663220Y-108293628D01*
X119663220Y-108769819D02*
X119663220Y-107769819D01*
X119187030Y-108769819D02*
X119187030Y-107769819D01*
X119187030Y-107769819D02*
X118615602Y-108769819D01*
X118615602Y-108769819D02*
X118615602Y-107769819D01*
X118139411Y-108769819D02*
X118139411Y-107769819D01*
X117567983Y-108769819D02*
X117996554Y-108198390D01*
X117567983Y-107769819D02*
X118139411Y-108341247D01*
D11*
%TO.C,G\u002A\u002A\u002A*%
G36*
X120264165Y-82178486D02*
G01*
X120256640Y-82232776D01*
X120234321Y-82341219D01*
X120200133Y-82490305D01*
X120157003Y-82666522D01*
X120154018Y-82678405D01*
X120029446Y-83222048D01*
X119940026Y-83728495D01*
X119882863Y-84222652D01*
X119855058Y-84729424D01*
X119853714Y-85273717D01*
X119866932Y-85965224D01*
X120020755Y-86424109D01*
X120135563Y-86741149D01*
X120349906Y-87220579D01*
X120595009Y-87638684D01*
X120874882Y-88000358D01*
X121193533Y-88310495D01*
X121554970Y-88573989D01*
X121963202Y-88795736D01*
X122015005Y-88820006D01*
X122135742Y-88876928D01*
X122222036Y-88918134D01*
X122257884Y-88936007D01*
X122259163Y-88945943D01*
X122257830Y-89014313D01*
X122251789Y-89136570D01*
X122241727Y-89299845D01*
X122228327Y-89491272D01*
X122225707Y-89528050D01*
X122209067Y-90030828D01*
X122228937Y-90505178D01*
X122283880Y-90944540D01*
X122372462Y-91342353D01*
X122493245Y-91692057D01*
X122644795Y-91987092D01*
X122825677Y-92220898D01*
X122970605Y-92370237D01*
X122946117Y-93657629D01*
X122945656Y-93682081D01*
X122941608Y-93912659D01*
X122936788Y-94210975D01*
X122931260Y-94572104D01*
X122925088Y-94991117D01*
X122918336Y-95463087D01*
X122911068Y-95983086D01*
X122903350Y-96546187D01*
X122895244Y-97147463D01*
X122886816Y-97781986D01*
X122878128Y-98444828D01*
X122869247Y-99131063D01*
X122860235Y-99835762D01*
X122851158Y-100553999D01*
X122842078Y-101280845D01*
X122833062Y-102011374D01*
X122824172Y-102740657D01*
X122815472Y-103463768D01*
X122807028Y-104175779D01*
X122798904Y-104871762D01*
X122791163Y-105546791D01*
X122786707Y-105919021D01*
X122781808Y-106288097D01*
X122776807Y-106628074D01*
X122771820Y-106932637D01*
X122766964Y-107195472D01*
X122762357Y-107410265D01*
X122758115Y-107570699D01*
X122754355Y-107670462D01*
X122751195Y-107703239D01*
X122750272Y-107702192D01*
X122747850Y-107697580D01*
X122744969Y-107687839D01*
X122741287Y-107670148D01*
X122736465Y-107641688D01*
X122730163Y-107599639D01*
X122722041Y-107541183D01*
X122711760Y-107463499D01*
X122698979Y-107363769D01*
X122683358Y-107239173D01*
X122664559Y-107086892D01*
X122642240Y-106904105D01*
X122616062Y-106687994D01*
X122585685Y-106435739D01*
X122550769Y-106144522D01*
X122510975Y-105811521D01*
X122465962Y-105433919D01*
X122415390Y-105008895D01*
X122358920Y-104533631D01*
X122296212Y-104005306D01*
X122226926Y-103421101D01*
X122150722Y-102778197D01*
X122067260Y-102073775D01*
X121976201Y-101305015D01*
X121877204Y-100469098D01*
X121769929Y-99563203D01*
X121710446Y-99060795D01*
X121627419Y-98359169D01*
X121552377Y-97724494D01*
X121484911Y-97153255D01*
X121424612Y-96641938D01*
X121371070Y-96187026D01*
X121323878Y-95785004D01*
X121282626Y-95432358D01*
X121246905Y-95125572D01*
X121216306Y-94861131D01*
X121190421Y-94635520D01*
X121168840Y-94445224D01*
X121151155Y-94286727D01*
X121136956Y-94156515D01*
X121125835Y-94051072D01*
X121117383Y-93966883D01*
X121111191Y-93900433D01*
X121074539Y-93587992D01*
X120962596Y-93002030D01*
X120791899Y-92379840D01*
X120563749Y-91724458D01*
X120279447Y-91038919D01*
X119940294Y-90326260D01*
X119547590Y-89589515D01*
X119102638Y-88831722D01*
X118606737Y-88055915D01*
X118118524Y-87321356D01*
X118137269Y-87101443D01*
X118149156Y-86997927D01*
X118177995Y-86809737D01*
X118218240Y-86582581D01*
X118266273Y-86334928D01*
X118318474Y-86085248D01*
X118371226Y-85852009D01*
X118420910Y-85653680D01*
X118487301Y-85416605D01*
X118699684Y-84763203D01*
X118942842Y-84151483D01*
X119212644Y-83591204D01*
X119504959Y-83092126D01*
X119550921Y-83022377D01*
X119681321Y-82833772D01*
X119814325Y-82653000D01*
X119942650Y-82488873D01*
X120059008Y-82350199D01*
X120156114Y-82245788D01*
X120226683Y-82184451D01*
X120263428Y-82174996D01*
X120264165Y-82178486D01*
G37*
G36*
X126432811Y-82186624D02*
G01*
X126495648Y-82243190D01*
X126577166Y-82327489D01*
X126609879Y-82363569D01*
X126955732Y-82795317D01*
X127277242Y-83289778D01*
X127571666Y-83840158D01*
X127836261Y-84439663D01*
X128068285Y-85081501D01*
X128264994Y-85758878D01*
X128423647Y-86465000D01*
X128541501Y-87193073D01*
X128532920Y-87248097D01*
X128494310Y-87337280D01*
X128422224Y-87466732D01*
X128313225Y-87642628D01*
X128163876Y-87871140D01*
X128124008Y-87931161D01*
X127958964Y-88180307D01*
X127824389Y-88385382D01*
X127711716Y-88560228D01*
X127612376Y-88718688D01*
X127517800Y-88874604D01*
X127419422Y-89041818D01*
X127308671Y-89234173D01*
X127176980Y-89465512D01*
X127093138Y-89614619D01*
X126750454Y-90257017D01*
X126446675Y-90882515D01*
X126185459Y-91482819D01*
X125970465Y-92049638D01*
X125805351Y-92574678D01*
X125779881Y-92667780D01*
X125732937Y-92848929D01*
X125692199Y-93023964D01*
X125655792Y-93204182D01*
X125621845Y-93400883D01*
X125588484Y-93625366D01*
X125553835Y-93888930D01*
X125516027Y-94202875D01*
X125473186Y-94578499D01*
X125462983Y-94669211D01*
X125427676Y-94979786D01*
X125385945Y-95342931D01*
X125339545Y-95743555D01*
X125290236Y-96166569D01*
X125239772Y-96596882D01*
X125189913Y-97019405D01*
X125142414Y-97419048D01*
X125121373Y-97595419D01*
X125074272Y-97990710D01*
X125026441Y-98392714D01*
X124979454Y-98788181D01*
X124934883Y-99163861D01*
X124894301Y-99506504D01*
X124859280Y-99802861D01*
X124831392Y-100039682D01*
X124820897Y-100128951D01*
X124794104Y-100356379D01*
X124760220Y-100643520D01*
X124720274Y-100981677D01*
X124675295Y-101362154D01*
X124626312Y-101776254D01*
X124574353Y-102215280D01*
X124520446Y-102670535D01*
X124465620Y-103133324D01*
X124410904Y-103594949D01*
X124377892Y-103873498D01*
X124324602Y-104323588D01*
X124272611Y-104763233D01*
X124222837Y-105184641D01*
X124176198Y-105580017D01*
X124133613Y-105941568D01*
X124096000Y-106261501D01*
X124064278Y-106532021D01*
X124039365Y-106745335D01*
X124022180Y-106893651D01*
X123999363Y-107088034D01*
X123975552Y-107282069D01*
X123954899Y-107441264D01*
X123939054Y-107552950D01*
X123929664Y-107604452D01*
X123920495Y-107626478D01*
X123900461Y-107641104D01*
X123899790Y-107637328D01*
X123897066Y-107579116D01*
X123893793Y-107455573D01*
X123890067Y-107272883D01*
X123885985Y-107037230D01*
X123881643Y-106754798D01*
X123877137Y-106431771D01*
X123872565Y-106074331D01*
X123868023Y-105688664D01*
X123863608Y-105280952D01*
X123860245Y-104962537D01*
X123854545Y-104441790D01*
X123848130Y-103874229D01*
X123841187Y-103275635D01*
X123833905Y-102661791D01*
X123826471Y-102048478D01*
X123819074Y-101451480D01*
X123811900Y-100886577D01*
X123805139Y-100369553D01*
X123805032Y-100361538D01*
X123798599Y-99876255D01*
X123791915Y-99368525D01*
X123785134Y-98850314D01*
X123778412Y-98333592D01*
X123771902Y-97830327D01*
X123765760Y-97352487D01*
X123760141Y-96912040D01*
X123755200Y-96520954D01*
X123751090Y-96191198D01*
X123750651Y-96155769D01*
X123745513Y-95760235D01*
X123739698Y-95341936D01*
X123733452Y-94916883D01*
X123727023Y-94501088D01*
X123720657Y-94110560D01*
X123714601Y-93761311D01*
X123709104Y-93469351D01*
X123687018Y-92360202D01*
X123831507Y-92215713D01*
X123905502Y-92133906D01*
X124067818Y-91889510D01*
X124203945Y-91586807D01*
X124312175Y-91233617D01*
X124390794Y-90837758D01*
X124438093Y-90407050D01*
X124452360Y-89949312D01*
X124431884Y-89472361D01*
X124425711Y-89391744D01*
X124413715Y-89212072D01*
X124406368Y-89065182D01*
X124404253Y-88964488D01*
X124407957Y-88923405D01*
X124436163Y-88907227D01*
X124516541Y-88870163D01*
X124627220Y-88823483D01*
X124736336Y-88775640D01*
X125073690Y-88586400D01*
X125406746Y-88340874D01*
X125720912Y-88050700D01*
X126001597Y-87727511D01*
X126090487Y-87601503D01*
X126230460Y-87366732D01*
X126367527Y-87098313D01*
X126490336Y-86819028D01*
X126587533Y-86551659D01*
X126598494Y-86516921D01*
X126660977Y-86305503D01*
X126708701Y-86110939D01*
X126743453Y-85918222D01*
X126767024Y-85712343D01*
X126781202Y-85478294D01*
X126787777Y-85201068D01*
X126788538Y-84865656D01*
X126783808Y-84545915D01*
X126764965Y-84147867D01*
X126729037Y-83775990D01*
X126672949Y-83406951D01*
X126593629Y-83017416D01*
X126488002Y-82584055D01*
X126449510Y-82427561D01*
X126420808Y-82294667D01*
X126406024Y-82204765D01*
X126407854Y-82171717D01*
X126432811Y-82186624D01*
G37*
G36*
X125747331Y-85283439D02*
G01*
X125746418Y-85416278D01*
X125739813Y-85523985D01*
X125721945Y-85596164D01*
X125687256Y-85653349D01*
X125630184Y-85716076D01*
X125513037Y-85836941D01*
X125036330Y-85836941D01*
X124559623Y-85836941D01*
X124438758Y-85719794D01*
X124393371Y-85674258D01*
X124350940Y-85618264D01*
X124328399Y-85552938D01*
X124319474Y-85456958D01*
X124317893Y-85309002D01*
X124318687Y-85184972D01*
X124325669Y-85080589D01*
X124345828Y-85009205D01*
X124355976Y-84993939D01*
X124663793Y-84993939D01*
X124669898Y-85270734D01*
X124670512Y-85296096D01*
X124675514Y-85425643D01*
X124682225Y-85519634D01*
X124689373Y-85559198D01*
X124694662Y-85561617D01*
X124753895Y-85570761D01*
X124860264Y-85579462D01*
X124993728Y-85586910D01*
X125134246Y-85592290D01*
X125261776Y-85594792D01*
X125356277Y-85593603D01*
X125397709Y-85587910D01*
X125399971Y-85583762D01*
X125408865Y-85526233D01*
X125415106Y-85418937D01*
X125417460Y-85281048D01*
X125417460Y-84993939D01*
X125040627Y-84993939D01*
X124663793Y-84993939D01*
X124355976Y-84993939D01*
X124386148Y-84948552D01*
X124453615Y-84876365D01*
X124589336Y-84737374D01*
X125047469Y-84737374D01*
X125505601Y-84737374D01*
X125626466Y-84854520D01*
X125680977Y-84909950D01*
X125718554Y-84964144D01*
X125738340Y-85030977D01*
X125746033Y-85130668D01*
X125747311Y-85281048D01*
X125747331Y-85283439D01*
G37*
G36*
X123685511Y-84743594D02*
G01*
X123837742Y-84745658D01*
X123940336Y-84749598D01*
X123981469Y-84755254D01*
X123983136Y-84762992D01*
X123957477Y-84811534D01*
X123897361Y-84882972D01*
X123876239Y-84904486D01*
X123818801Y-84951840D01*
X123752614Y-84979455D01*
X123656159Y-84993891D01*
X123507919Y-85001709D01*
X123222122Y-85012265D01*
X123514603Y-85360462D01*
X123516907Y-85363205D01*
X123632652Y-85502648D01*
X123732826Y-85626286D01*
X123806781Y-85720782D01*
X123843865Y-85772799D01*
X123855798Y-85797545D01*
X123849338Y-85823259D01*
X123797732Y-85834476D01*
X123686932Y-85836936D01*
X123493218Y-85836932D01*
X123047266Y-85296316D01*
X122601314Y-84755700D01*
X123281623Y-84745709D01*
X123495470Y-84743568D01*
X123685511Y-84743594D01*
G37*
G36*
X122375325Y-85066149D02*
G01*
X122375325Y-85394924D01*
X121908009Y-85405182D01*
X121747978Y-85409107D01*
X121605959Y-85414888D01*
X121515995Y-85423637D01*
X121466311Y-85437459D01*
X121445135Y-85458460D01*
X121440693Y-85488744D01*
X121440709Y-85491471D01*
X121447095Y-85524026D01*
X121474078Y-85545416D01*
X121534834Y-85558625D01*
X121642538Y-85566635D01*
X121810367Y-85572428D01*
X121898720Y-85575000D01*
X122038012Y-85581320D01*
X122130316Y-85593005D01*
X122193423Y-85615019D01*
X122245120Y-85652321D01*
X122303199Y-85709874D01*
X122426357Y-85836941D01*
X121838945Y-85836941D01*
X121251532Y-85836941D01*
X121133085Y-85672006D01*
X121014637Y-85507071D01*
X121133085Y-85342136D01*
X121251532Y-85177200D01*
X121630167Y-85177200D01*
X122008802Y-85177200D01*
X122008802Y-85085570D01*
X122008802Y-84993939D01*
X121631144Y-84993939D01*
X121253485Y-84993939D01*
X121129149Y-84865656D01*
X121004812Y-84737374D01*
X121690069Y-84737374D01*
X122375325Y-84737374D01*
X122375325Y-85066149D01*
G37*
%TD*%
M02*
