%TF.GenerationSoftware,KiCad,Pcbnew,9.0.6-1.fc42*%
%TF.CreationDate,2025-12-19T16:16:41-05:00*%
%TF.ProjectId,HALOW-USB,48414c4f-572d-4555-9342-2e6b69636164,rev?*%
%TF.SameCoordinates,Original*%
%TF.FileFunction,Paste,Top*%
%TF.FilePolarity,Positive*%
%FSLAX46Y46*%
G04 Gerber Fmt 4.6, Leading zero omitted, Abs format (unit mm)*
G04 Created by KiCad (PCBNEW 9.0.6-1.fc42) date 2025-12-19 16:16:41*
%MOMM*%
%LPD*%
G01*
G04 APERTURE LIST*
G04 Aperture macros list*
%AMRoundRect*
0 Rectangle with rounded corners*
0 $1 Rounding radius*
0 $2 $3 $4 $5 $6 $7 $8 $9 X,Y pos of 4 corners*
0 Add a 4 corners polygon primitive as box body*
4,1,4,$2,$3,$4,$5,$6,$7,$8,$9,$2,$3,0*
0 Add four circle primitives for the rounded corners*
1,1,$1+$1,$2,$3*
1,1,$1+$1,$4,$5*
1,1,$1+$1,$6,$7*
1,1,$1+$1,$8,$9*
0 Add four rect primitives between the rounded corners*
20,1,$1+$1,$2,$3,$4,$5,0*
20,1,$1+$1,$4,$5,$6,$7,0*
20,1,$1+$1,$6,$7,$8,$9,0*
20,1,$1+$1,$8,$9,$2,$3,0*%
G04 Aperture macros list end*
%ADD10R,0.600000X1.100000*%
%ADD11R,0.600000X1.240000*%
%ADD12R,0.300000X1.240000*%
%ADD13RoundRect,0.237500X-0.237500X0.300000X-0.237500X-0.300000X0.237500X-0.300000X0.237500X0.300000X0*%
%ADD14RoundRect,0.150000X0.150000X-0.512500X0.150000X0.512500X-0.150000X0.512500X-0.150000X-0.512500X0*%
%ADD15RoundRect,0.237500X0.250000X0.237500X-0.250000X0.237500X-0.250000X-0.237500X0.250000X-0.237500X0*%
%ADD16RoundRect,0.237500X-0.250000X-0.237500X0.250000X-0.237500X0.250000X0.237500X-0.250000X0.237500X0*%
%ADD17R,1.000000X1.050000*%
%ADD18R,1.050000X2.200000*%
%ADD19RoundRect,0.237500X0.237500X-0.300000X0.237500X0.300000X-0.237500X0.300000X-0.237500X-0.300000X0*%
%ADD20RoundRect,0.237500X-0.300000X-0.237500X0.300000X-0.237500X0.300000X0.237500X-0.300000X0.237500X0*%
%ADD21R,0.600000X0.600000*%
G04 APERTURE END LIST*
D10*
%TO.C,U1*%
X117550000Y-97200000D03*
X119450000Y-97200000D03*
X119450000Y-99800000D03*
X118500000Y-99800000D03*
X117550000Y-99800000D03*
%TD*%
D11*
%TO.C,U2*%
X120300000Y-106032500D03*
X121100000Y-106032500D03*
D12*
X122250000Y-106032500D03*
X123250000Y-106032500D03*
X123750000Y-106032500D03*
X124750000Y-106032500D03*
D11*
X126700000Y-106032500D03*
X125900000Y-106032500D03*
D12*
X125250000Y-106032500D03*
X124250000Y-106032500D03*
X122750000Y-106032500D03*
X121750000Y-106032500D03*
%TD*%
D13*
%TO.C,C2*%
X126700000Y-95200000D03*
X126700000Y-96925000D03*
%TD*%
D14*
%TO.C,U3*%
X122550000Y-102400000D03*
X123500000Y-102400000D03*
X124450000Y-102400000D03*
X124450000Y-100125000D03*
X123500000Y-100125000D03*
X122550000Y-100125000D03*
%TD*%
D15*
%TO.C,R2*%
X119412500Y-103500000D03*
X117587500Y-103500000D03*
%TD*%
D16*
%TO.C,R3*%
X127587500Y-103500000D03*
X129412500Y-103500000D03*
%TD*%
D13*
%TO.C,C3*%
X128600000Y-95200000D03*
X128600000Y-96925000D03*
%TD*%
D17*
%TO.C,JP1*%
X119000000Y-80760000D03*
D18*
X117530000Y-79240000D03*
X120470000Y-79240000D03*
%TD*%
D19*
%TO.C,C1*%
X127000000Y-82062500D03*
X127000000Y-80337500D03*
%TD*%
D20*
%TO.C,C7*%
X123437500Y-80200000D03*
X125162500Y-80200000D03*
%TD*%
%TO.C,C6*%
X117637500Y-95500000D03*
X119362500Y-95500000D03*
%TD*%
D19*
%TO.C,C4*%
X124600000Y-96925000D03*
X124600000Y-95200000D03*
%TD*%
D21*
%TO.C,MM8108-MF1*%
X118000000Y-84200000D03*
X119000000Y-84200000D03*
X120000000Y-84200000D03*
X121000000Y-84200000D03*
X122000000Y-84200000D03*
X123000000Y-84200000D03*
X124000000Y-84200000D03*
X125000000Y-84200000D03*
X126000000Y-84200000D03*
X127000000Y-84200000D03*
X128000000Y-84200000D03*
X128000000Y-85200000D03*
X128000000Y-86200000D03*
X128000000Y-87200000D03*
X128000000Y-88200000D03*
X128000000Y-89200000D03*
X128000000Y-90200000D03*
X128000000Y-91200000D03*
X128000000Y-92200000D03*
X128000000Y-93200000D03*
X127000000Y-93200000D03*
X126000000Y-93200000D03*
X125000000Y-93200000D03*
X124000000Y-93200000D03*
X123000000Y-93200000D03*
X122000000Y-93200000D03*
X121000000Y-93200000D03*
X120000000Y-93200000D03*
X119000000Y-93200000D03*
X118000000Y-93200000D03*
X118000000Y-92200000D03*
X118000000Y-91200000D03*
X118000000Y-90200000D03*
X118000000Y-89200000D03*
X118000000Y-88200000D03*
X118000000Y-87200000D03*
X118000000Y-86200000D03*
X118000000Y-85200000D03*
%TD*%
D15*
%TO.C,R1*%
X125212500Y-82200000D03*
X123387500Y-82200000D03*
%TD*%
D20*
%TO.C,C5*%
X117637500Y-101500000D03*
X119362500Y-101500000D03*
%TD*%
M02*
